<?xml version="1.0" encoding="UTF-8"?>
<svg id="Capa_1" data-name="Capa 1" xmlns="http://www.w3.org/2000/svg" viewBox="0 0 2603.45 616.73">
  <defs>
    <style>
      .cls-1 {
        fill: #0a9748;
      }

      .cls-1, .cls-2, .cls-3 {
        stroke-width: 0px;
      }

      .cls-2 {
        fill: #b31f24;
      }

      .cls-3 {
        fill: #005696;
      }
    </style>
  </defs>
  <path class="cls-3" d="M676.53,322.97c12.15,0,24.01,2.23,35.22,6.62,10.96,4.3,19.08,9.86,24.13,16.52l2.86,3.78,43.52-45.2-2.86-2.77c-28.45-27.62-64.64-41.61-107.5-41.61s-79.26,13.65-106.57,40.57c-27.33,26.93-41.18,62.43-41.18,105.52s13.86,78.21,41.18,105.07c27.32,26.86,63.29,40.47,106.94,40.47s80.16-14.03,107.2-41.69l2.69-2.75-43.41-45.56-2.88,3.8c-5.05,6.64-13.2,12.21-24.22,16.51-11.26,4.39-23.08,6.62-35.12,6.62-22.2,0-39.76-7.46-53.7-22.84-13.86-15.26-20.87-35.46-20.87-60.02s7.01-44.77,20.87-60.11c13.95-15.43,31.5-22.93,53.7-22.93"/>
  <path class="cls-3" d="M1000.36,368.5c-21.13-19.77-48.76-29.77-82.05-29.77s-60.9,10.01-82.05,29.77c-21.25,19.81-32,45.65-32,76.83s10.75,57.02,32,76.83c21.15,19.77,48.74,29.78,82.05,29.78s60.91-10.01,82.05-29.78c21.23-19.81,32-45.65,32-76.83s-10.77-57.02-32-76.83M947.72,480.37c-7.69,8.81-17.32,13.09-29.4,13.09s-21.68-4.34-29.38-13.26c-7.76-9-11.69-20.72-11.69-34.88s3.93-26.18,11.67-35.05c7.71-8.81,17.32-13.09,29.4-13.09s21.69,4.28,29.4,13.09c7.74,8.86,11.67,20.65,11.67,35.05s-3.93,26.18-11.67,35.05"/>
  <path class="cls-3" d="M1147.83,485.26l-3.29,3.25c-2.84,2.82-5.74,4.19-8.98,4.19-4.06-.04-7.22-1.03-9.54-3.33-2.26-2.23-3.37-5.24-3.37-9.15v-225.48h-68.34v230.27c0,19.58,6.53,35.8,19.37,48.23,12.83,12.4,29.63,18.68,49.95,18.68s39.14-7.57,53.53-22.54l2.36-2.47-31.7-41.67Z"/>
  <path class="cls-3" d="M1201.6,616.73v-230.7h31.14v28.58c4.9-9.31,12.6-16.89,23.08-22.69,10.49-5.8,21.94-8.7,34.34-8.7,20.35,0,36.81,7.26,49.37,21.75,12.59,14.49,18.87,33.31,18.87,56.39,0,25.7-7.86,46.53-23.55,62.52-15.71,16.01-36.28,24.01-61.74,24.01-15.86,0-29.33-3.05-40.38-9.16v77.99h-31.14ZM1232.74,463.09v49.24c11.35,6.1,23.53,9.16,36.45,9.16,16.7,0,30.19-5.39,40.45-16.16,10.29-10.77,15.43-24.95,15.43-42.57,0-15.95-4.28-28.91-12.83-38.92-8.57-9.99-19.58-14.98-33.03-14.98s-24.84,5.05-33.5,15.15c-8.66,10.1-12.98,23.12-12.98,39.07"/>
  <path class="cls-3" d="M1538.83,475.83h-125.66c.84,13.35,6.75,24.26,17.77,32.69,11,8.45,24.63,12.66,40.9,12.66,18.39,0,32.56-4.66,42.59-13.97l17.37,16.93c-16.08,15.95-37.37,23.86-63.85,23.77-25.88,0-46.93-7.8-63.14-23.38-16.25-15.58-24.35-35.85-24.35-60.82,0-23.51,7.39-42.79,22.15-57.87,14.76-15.07,33.89-22.61,57.36-22.61s42.59,7.61,57.34,22.84c14.76,15.22,22.16,35.16,22.16,59.81,0,4.25-.23,7.57-.64,9.95M1413.78,452.53h93.59c-.43-12.74-4.81-23.12-13.15-31.16-8.36-8.02-19.04-12.05-32.07-12.05s-24.05,3.97-33.03,11.9c-8.96,7.93-14.08,18.37-15.34,31.31"/>
  <path class="cls-3" d="M1561.34,545.1v-159.06h31.14v28.26c5.95-9.73,13.84-17.34,23.72-22.84,9.86-5.48,20.74-8.23,32.64-8.23,18.55,0,33.64,5.72,45.22,17.17,11.58,11.45,17.36,26.28,17.36,44.51v100.19h-31.14v-94.15c0-12.53-3.72-22.67-11.18-30.45-7.46-7.76-17.19-11.65-29.2-11.65-14.08,0-25.49,5.33-34.26,15.93-8.77,10.62-13.15,24.11-13.15,40.47v79.84h-31.14Z"/>
  <path class="cls-3" d="M1858.53,499.9c0,14.4-5.89,26-17.68,34.81-11.8,8.81-27.38,13.2-46.79,13.2-23.7,0-43.88-7.41-60.58-22.22l15.97-18.18c11.37,9.54,26.03,14.29,43.99,14.29,10.62,0,19.15-1.83,25.59-5.52,6.4-3.67,9.61-8.51,9.61-14.51s-2.77-10.06-8.29-13.13c-5.54-3.07-14.2-6.4-26-10.02-1.46-.41-2.49-.73-3.12-.92-8.14-2.39-14.68-4.6-19.62-6.62-4.97-2-10.36-4.86-16.21-8.55-5.84-3.67-10.21-8.23-13.07-13.67-2.86-5.44-4.28-11.82-4.28-19.17,0-14.19,5.42-25.49,16.27-33.87,10.85-8.4,25.49-12.59,43.97-12.59,22.42,0,40.88,7,55.4,20.97l-16.12,18.5c-10-8.9-22.8-13.35-38.34-13.35-9.39,0-16.98,1.68-22.78,5.05-5.78,3.35-8.68,7.78-8.68,13.28,0,4.25,2.04,8.02,6.12,11.33,4.06,3.31,7.85,5.59,11.33,6.83,3.5,1.25,9.31,3.16,17.45,5.76,7.11,2.06,12.66,3.8,16.74,5.2,4.08,1.4,8.94,3.52,14.57,6.38,5.61,2.84,10.01,5.82,13.15,8.92,3.12,3.12,5.8,7.05,8.04,11.82,2.24,4.75,3.37,10.1,3.37,15.99"/>
  <rect class="cls-3" x="1880.6" y="322.34" width="31.14" height="31.55"/>
  <rect class="cls-3" x="1880.6" y="386.02" width="31.14" height="159.06"/>
  <path class="cls-3" d="M1957.39,524.85c-15.8-15.39-23.71-35.14-23.71-59.27s7.91-43.89,23.71-59.27c15.82-15.39,36.19-23.08,61.18-23.08s45.39,7.69,61.19,23.08c15.8,15.37,23.7,35.12,23.7,59.27s-7.89,43.88-23.7,59.27c-15.8,15.37-36.21,23.06-61.19,23.06s-45.35-7.69-61.18-23.06M1981.4,425.18c-9.6,10.36-14.4,23.81-14.4,40.4s4.81,29.98,14.4,40.23c9.61,10.25,21.99,15.37,37.16,15.37s27.59-5.13,37.18-15.37c9.59-10.25,14.38-23.68,14.38-40.23s-4.79-30.04-14.38-40.4c-9.6-10.36-21.99-15.54-37.18-15.54s-27.55,5.18-37.16,15.54"/>
  <path class="cls-3" d="M2125.41,545.1v-159.06h31.14v28.26c5.95-9.73,13.84-17.34,23.72-22.84,9.86-5.48,20.72-8.23,32.64-8.23,18.55,0,33.64,5.72,45.22,17.17,11.58,11.45,17.36,26.28,17.36,44.51v100.19h-31.14v-94.15c0-12.53-3.72-22.67-11.18-30.45-7.46-7.76-17.19-11.65-29.2-11.65-14.08,0-25.51,5.33-34.26,15.93-8.77,10.62-13.15,24.11-13.15,40.47v79.84h-31.14Z"/>
  <path class="cls-3" d="M2455.81,475.83h-125.66c.82,13.35,6.75,24.26,17.75,32.69,11.02,8.45,24.65,12.66,40.92,12.66,18.37,0,32.56-4.66,42.57-13.97l17.38,16.93c-16.07,15.95-37.35,23.86-63.83,23.77-25.88,0-46.94-7.8-63.16-23.38-16.23-15.58-24.33-35.85-24.33-60.82,0-23.51,7.37-42.79,22.12-57.87,14.78-15.07,33.89-22.61,57.38-22.61s42.57,7.61,57.34,22.84c14.76,15.22,22.15,35.16,22.15,59.81,0,4.25-.21,7.57-.62,9.95M2330.77,452.53h93.59c-.43-12.74-4.81-23.12-13.15-31.16-8.36-8.02-19.04-12.05-32.07-12.05s-24.05,3.97-33.03,11.9c-8.98,7.93-14.08,18.37-15.34,31.31"/>
  <path class="cls-3" d="M2603.45,499.9c0,14.4-5.89,26-17.69,34.81-11.78,8.81-27.38,13.2-46.8,13.2-23.68,0-43.86-7.41-60.56-22.22l15.97-18.18c11.35,9.54,26.03,14.29,43.97,14.29,10.64,0,19.17-1.83,25.59-5.52,6.39-3.67,9.61-8.51,9.61-14.51s-2.75-10.06-8.29-13.13c-5.53-3.07-14.19-6.4-25.98-10.02-1.48-.41-2.49-.73-3.14-.92-8.12-2.39-14.68-4.6-19.62-6.62-4.96-2-10.36-4.86-16.21-8.55-5.84-3.67-10.19-8.23-13.05-13.67-2.86-5.44-4.3-11.82-4.3-19.17,0-14.19,5.42-25.49,16.27-33.87,10.85-8.4,25.51-12.59,43.97-12.59,22.44,0,40.9,7,55.4,20.97l-16.12,18.5c-10.01-8.9-22.8-13.35-38.34-13.35-9.39,0-16.96,1.68-22.76,5.05-5.78,3.35-8.7,7.78-8.7,13.28,0,4.25,2.04,8.02,6.11,11.33,4.06,3.31,7.86,5.59,11.34,6.83,3.52,1.25,9.31,3.16,17.47,5.76,7.09,2.06,12.66,3.8,16.72,5.2,4.08,1.4,8.94,3.52,14.57,6.38,5.63,2.84,10.02,5.82,13.15,8.92,3.12,3.12,5.8,7.05,8.04,11.82,2.24,4.75,3.39,10.1,3.39,15.99"/>
  <path class="cls-1" d="M295.93,0c-.94,0-1.74.62-2.04,1.5-1.7,4.83-4.55,8.42-8.47,10.81-4.26,2.54-8.83,4.02-13.67,4.02-2.3,0-13.24-2.75-32.64-8.17C219.55,2.71,200.64,0,182.2,0c-52.89,0-101.95,17.54-135.16,52.7C15.69,86.18,0,127.55,0,176.93s14.93,88.39,44.49,120.46c32.41,34.88,81.81,52.27,136.72,52.27,33.5,0,64.37-9,92.99-27.17,16.29-10.38,29.91-22.42,41.01-35.95.64-.8.58-1.96-.15-2.69-1.78-1.78-5.01-4.97-6.84-6.81-.77-.77-2-.77-2.81-.02-14.74,13.69-28.24,23.88-40.68,30.82-22.2,12.61-46.64,18.85-73.03,18.85-36.52,0-60.86-13.52-84.61-40.53-23.96-26.95-35.85-63.05-35.85-108.25,0-49.19,11.39-87.73,33.96-115.82,22.76-28.09,45.99-42.06,81.77-42.06s63.57,13.02,84.55,39.14c10.72,13.48,19.45,31.35,26.26,53.15.24.84,1.03,1.44,1.91,1.44h8.12c1.14,0,2.06-.95,2.02-2.09l-4.64-109.61c-.06-1.16-1.01-2.06-2.17-2.06h-7.09Z"/>
  <path class="cls-2" d="M353.16,174.81c0,26.02-21.27,47.19-47.54,47.19s-47.47-21.17-47.47-47.19,21.21-47.19,47.47-47.19,47.54,21.02,47.54,47.19"/>
  <path class="cls-1" d="M502.03,212.5c-.06-1.57-.08-3.12-.11-4.68-1.27-72.08-47.45-115.13-80.46-136.75-19.68-12.89-41.95-21.4-65.16-25.44-109.02-19-168.72,50.87-177.28,61.74-.63.8-.54,1.93.19,2.66l6.96,6.9c.8.8,2.13.79,2.9-.04,9.99-10.53,72.68-71.67,157.04-43.97,0,0,60.35,17.43,79.09,101.91,10,45.17,7.85,137.76-61.01,174.83,0,0-35.8,23-145.13,19.06-1.14-.04-2.11.88-2.1,2.02l.04,3.63-.07.02s2.66,150.01-7.61,198.27c-1.83,8.6-7.59,15.93-15.62,19.62-8.17,3.72-21.51,7.65-42.77,9.3-1.05.07-1.89.93-1.89,1.98v10.79c0,1.12.92,2.02,2.02,2.02h218.63c1.1,0,2-.9,2-2.02v-10.7c0-1.08-.84-1.96-1.91-2.02-7.33-.32-33.81-1.93-50.52-9.24-6.3-2.77-11.03-8.17-13.02-14.72-5.05-16.91-13.09-63.08-10.02-182.63.04-1.08.97-1.98,2.04-1.98,205.8-1.05,204.55-162.54,203.76-180.56"/>
</svg>